<mxfile host="app.diagrams.net" modified="2024-04-05T16:29:35.261Z" agent="Mozilla/5.0 (Windows NT 10.0; Win64; x64) AppleWebKit/537.36 (KHTML, like Gecko) Chrome/123.0.0.0 Safari/537.36" etag="YqkOGOY-IE8bQ9cZM3SH" version="24.2.2" type="device">
  <diagram name="PÃ¡gina-1" id="4NGQhcDZQmr_PsPV2oiH">
    <mxGraphModel dx="1434" dy="780" grid="0" gridSize="10" guides="1" tooltips="1" connect="1" arrows="1" fold="1" page="1" pageScale="1" pageWidth="1169" pageHeight="827" math="0" shadow="0">
      <root>
        <mxCell id="0" />
        <mxCell id="1" parent="0" />
        <mxCell id="xXSBbQS-GHTuA5fwGTZt-25" value="" style="edgeStyle=orthogonalEdgeStyle;rounded=0;orthogonalLoop=1;jettySize=auto;html=1;endArrow=none;endFill=0;" edge="1" parent="1" source="xXSBbQS-GHTuA5fwGTZt-1" target="xXSBbQS-GHTuA5fwGTZt-24">
          <mxGeometry relative="1" as="geometry" />
        </mxCell>
        <mxCell id="xXSBbQS-GHTuA5fwGTZt-26" value="" style="edgeStyle=orthogonalEdgeStyle;rounded=0;orthogonalLoop=1;jettySize=auto;html=1;endArrow=none;endFill=0;" edge="1" parent="1" source="xXSBbQS-GHTuA5fwGTZt-1" target="xXSBbQS-GHTuA5fwGTZt-23">
          <mxGeometry relative="1" as="geometry" />
        </mxCell>
        <mxCell id="xXSBbQS-GHTuA5fwGTZt-1" value="Inventario" style="rounded=0;whiteSpace=wrap;html=1;fillColor=#f8cecc;strokeColor=#b85450;" vertex="1" parent="1">
          <mxGeometry x="65" y="260" width="120" height="60" as="geometry" />
        </mxCell>
        <mxCell id="xXSBbQS-GHTuA5fwGTZt-20" value="" style="edgeStyle=orthogonalEdgeStyle;rounded=0;orthogonalLoop=1;jettySize=auto;html=1;endArrow=none;endFill=0;" edge="1" parent="1" source="xXSBbQS-GHTuA5fwGTZt-2" target="xXSBbQS-GHTuA5fwGTZt-11">
          <mxGeometry relative="1" as="geometry" />
        </mxCell>
        <mxCell id="xXSBbQS-GHTuA5fwGTZt-21" value="" style="edgeStyle=orthogonalEdgeStyle;rounded=0;orthogonalLoop=1;jettySize=auto;html=1;endArrow=none;endFill=0;" edge="1" parent="1" source="xXSBbQS-GHTuA5fwGTZt-2">
          <mxGeometry relative="1" as="geometry">
            <mxPoint x="1025" y="290" as="targetPoint" />
          </mxGeometry>
        </mxCell>
        <mxCell id="xXSBbQS-GHTuA5fwGTZt-22" value="" style="edgeStyle=orthogonalEdgeStyle;rounded=0;orthogonalLoop=1;jettySize=auto;html=1;endArrow=none;endFill=0;" edge="1" parent="1" source="xXSBbQS-GHTuA5fwGTZt-2" target="xXSBbQS-GHTuA5fwGTZt-10">
          <mxGeometry relative="1" as="geometry" />
        </mxCell>
        <mxCell id="xXSBbQS-GHTuA5fwGTZt-30" value="" style="edgeStyle=orthogonalEdgeStyle;rounded=0;orthogonalLoop=1;jettySize=auto;html=1;endArrow=none;endFill=0;" edge="1" parent="1" source="xXSBbQS-GHTuA5fwGTZt-2">
          <mxGeometry relative="1" as="geometry">
            <mxPoint x="935" y="360" as="targetPoint" />
          </mxGeometry>
        </mxCell>
        <mxCell id="xXSBbQS-GHTuA5fwGTZt-2" value="Clientes" style="rounded=0;whiteSpace=wrap;html=1;fillColor=#f8cecc;strokeColor=#b85450;" vertex="1" parent="1">
          <mxGeometry x="875" y="260" width="120" height="60" as="geometry" />
        </mxCell>
        <mxCell id="xXSBbQS-GHTuA5fwGTZt-18" style="edgeStyle=orthogonalEdgeStyle;rounded=0;orthogonalLoop=1;jettySize=auto;html=1;exitX=0.75;exitY=0;exitDx=0;exitDy=0;entryX=0.5;entryY=1;entryDx=0;entryDy=0;endArrow=none;endFill=0;" edge="1" parent="1" source="xXSBbQS-GHTuA5fwGTZt-3" target="xXSBbQS-GHTuA5fwGTZt-14">
          <mxGeometry relative="1" as="geometry" />
        </mxCell>
        <mxCell id="xXSBbQS-GHTuA5fwGTZt-19" value="" style="edgeStyle=orthogonalEdgeStyle;rounded=0;orthogonalLoop=1;jettySize=auto;html=1;endArrow=none;endFill=0;" edge="1" parent="1" source="xXSBbQS-GHTuA5fwGTZt-3" target="xXSBbQS-GHTuA5fwGTZt-13">
          <mxGeometry relative="1" as="geometry" />
        </mxCell>
        <mxCell id="xXSBbQS-GHTuA5fwGTZt-3" value="Producto" style="rounded=0;whiteSpace=wrap;html=1;fillColor=#f8cecc;strokeColor=#b85450;" vertex="1" parent="1">
          <mxGeometry x="458.5" y="260" width="120" height="60" as="geometry" />
        </mxCell>
        <mxCell id="xXSBbQS-GHTuA5fwGTZt-6" value="" style="edgeStyle=orthogonalEdgeStyle;rounded=0;orthogonalLoop=1;jettySize=auto;html=1;endArrow=none;endFill=0;exitX=1;exitY=0.5;exitDx=0;exitDy=0;" edge="1" parent="1" source="xXSBbQS-GHTuA5fwGTZt-4" target="xXSBbQS-GHTuA5fwGTZt-2">
          <mxGeometry relative="1" as="geometry">
            <mxPoint x="835" y="290" as="sourcePoint" />
          </mxGeometry>
        </mxCell>
        <mxCell id="xXSBbQS-GHTuA5fwGTZt-7" value="" style="edgeStyle=orthogonalEdgeStyle;rounded=0;orthogonalLoop=1;jettySize=auto;html=1;endArrow=none;endFill=0;" edge="1" parent="1" source="xXSBbQS-GHTuA5fwGTZt-4" target="xXSBbQS-GHTuA5fwGTZt-3">
          <mxGeometry relative="1" as="geometry" />
        </mxCell>
        <mxCell id="xXSBbQS-GHTuA5fwGTZt-114" style="edgeStyle=orthogonalEdgeStyle;rounded=0;orthogonalLoop=1;jettySize=auto;html=1;exitX=0;exitY=1;exitDx=0;exitDy=0;entryX=0.5;entryY=0;entryDx=0;entryDy=0;endArrow=none;endFill=0;" edge="1" parent="1" source="xXSBbQS-GHTuA5fwGTZt-4" target="xXSBbQS-GHTuA5fwGTZt-86">
          <mxGeometry relative="1" as="geometry">
            <Array as="points">
              <mxPoint x="669" y="310" />
              <mxPoint x="669" y="350" />
            </Array>
          </mxGeometry>
        </mxCell>
        <mxCell id="xXSBbQS-GHTuA5fwGTZt-115" style="edgeStyle=orthogonalEdgeStyle;rounded=0;orthogonalLoop=1;jettySize=auto;html=1;exitX=1;exitY=1;exitDx=0;exitDy=0;entryX=0.5;entryY=0;entryDx=0;entryDy=0;endArrow=none;endFill=0;" edge="1" parent="1" source="xXSBbQS-GHTuA5fwGTZt-4" target="xXSBbQS-GHTuA5fwGTZt-106">
          <mxGeometry relative="1" as="geometry">
            <Array as="points">
              <mxPoint x="785" y="310" />
            </Array>
          </mxGeometry>
        </mxCell>
        <mxCell id="xXSBbQS-GHTuA5fwGTZt-4" value="Compran" style="rhombus;whiteSpace=wrap;html=1;fillColor=#fff2cc;strokeColor=#d6b656;" vertex="1" parent="1">
          <mxGeometry x="685" y="250" width="80" height="80" as="geometry" />
        </mxCell>
        <mxCell id="xXSBbQS-GHTuA5fwGTZt-8" value="" style="edgeStyle=orthogonalEdgeStyle;rounded=0;orthogonalLoop=1;jettySize=auto;html=1;endArrow=none;endFill=0;" edge="1" parent="1" source="xXSBbQS-GHTuA5fwGTZt-118" target="xXSBbQS-GHTuA5fwGTZt-3">
          <mxGeometry relative="1" as="geometry">
            <mxPoint x="415" y="290" as="sourcePoint" />
          </mxGeometry>
        </mxCell>
        <mxCell id="xXSBbQS-GHTuA5fwGTZt-9" value="" style="edgeStyle=orthogonalEdgeStyle;rounded=0;orthogonalLoop=1;jettySize=auto;html=1;endArrow=none;endFill=0;exitX=0;exitY=0.5;exitDx=0;exitDy=0;" edge="1" parent="1" source="xXSBbQS-GHTuA5fwGTZt-118" target="xXSBbQS-GHTuA5fwGTZt-1">
          <mxGeometry relative="1" as="geometry">
            <mxPoint x="225" y="290" as="sourcePoint" />
          </mxGeometry>
        </mxCell>
        <mxCell id="xXSBbQS-GHTuA5fwGTZt-10" value="nombre_imagen" style="ellipse;whiteSpace=wrap;html=1;fillColor=#dae8fc;strokeColor=#6c8ebf;" vertex="1" parent="1">
          <mxGeometry x="875" y="140" width="120" height="80" as="geometry" />
        </mxCell>
        <mxCell id="xXSBbQS-GHTuA5fwGTZt-11" value="ID" style="ellipse;whiteSpace=wrap;html=1;fillColor=#dae8fc;strokeColor=#6c8ebf;" vertex="1" parent="1">
          <mxGeometry x="1005" y="250" width="90" height="80" as="geometry" />
        </mxCell>
        <mxCell id="xXSBbQS-GHTuA5fwGTZt-13" value="ID" style="ellipse;whiteSpace=wrap;html=1;fillColor=#dae8fc;strokeColor=#6c8ebf;" vertex="1" parent="1">
          <mxGeometry x="459" y="360" width="120" height="80" as="geometry" />
        </mxCell>
        <mxCell id="xXSBbQS-GHTuA5fwGTZt-14" value="precio" style="ellipse;whiteSpace=wrap;html=1;fillColor=#dae8fc;strokeColor=#6c8ebf;" vertex="1" parent="1">
          <mxGeometry x="535" y="130" width="120" height="80" as="geometry" />
        </mxCell>
        <mxCell id="xXSBbQS-GHTuA5fwGTZt-15" value="nombre" style="ellipse;whiteSpace=wrap;html=1;fillColor=#dae8fc;strokeColor=#6c8ebf;" vertex="1" parent="1">
          <mxGeometry x="375" y="130" width="120" height="80" as="geometry" />
        </mxCell>
        <mxCell id="xXSBbQS-GHTuA5fwGTZt-17" style="edgeStyle=orthogonalEdgeStyle;rounded=0;orthogonalLoop=1;jettySize=auto;html=1;exitX=0.25;exitY=0;exitDx=0;exitDy=0;entryX=0.6;entryY=0.988;entryDx=0;entryDy=0;entryPerimeter=0;endArrow=none;endFill=0;" edge="1" parent="1" source="xXSBbQS-GHTuA5fwGTZt-3" target="xXSBbQS-GHTuA5fwGTZt-15">
          <mxGeometry relative="1" as="geometry" />
        </mxCell>
        <mxCell id="xXSBbQS-GHTuA5fwGTZt-23" value="&lt;span style=&quot;text-align: left;&quot;&gt;cantidad_existencia&lt;/span&gt;" style="ellipse;whiteSpace=wrap;html=1;fillColor=#dae8fc;strokeColor=#6c8ebf;" vertex="1" parent="1">
          <mxGeometry x="65" y="140" width="120" height="80" as="geometry" />
        </mxCell>
        <mxCell id="xXSBbQS-GHTuA5fwGTZt-24" value="ID" style="ellipse;whiteSpace=wrap;html=1;fillColor=#dae8fc;strokeColor=#6c8ebf;" vertex="1" parent="1">
          <mxGeometry x="65" y="350" width="120" height="80" as="geometry" />
        </mxCell>
        <mxCell id="xXSBbQS-GHTuA5fwGTZt-31" value="Productos" style="shape=table;startSize=30;container=1;collapsible=1;childLayout=tableLayout;fixedRows=1;rowLines=0;fontStyle=1;align=center;resizeLast=1;html=1;fillColor=#dae8fc;strokeColor=#6c8ebf;" vertex="1" parent="1">
          <mxGeometry x="495" y="510" width="180" height="120" as="geometry" />
        </mxCell>
        <mxCell id="xXSBbQS-GHTuA5fwGTZt-32" value="" style="shape=tableRow;horizontal=0;startSize=0;swimlaneHead=0;swimlaneBody=0;fillColor=none;collapsible=0;dropTarget=0;points=[[0,0.5],[1,0.5]];portConstraint=eastwest;top=0;left=0;right=0;bottom=1;" vertex="1" parent="xXSBbQS-GHTuA5fwGTZt-31">
          <mxGeometry y="30" width="180" height="30" as="geometry" />
        </mxCell>
        <mxCell id="xXSBbQS-GHTuA5fwGTZt-33" value="PK" style="shape=partialRectangle;connectable=0;fillColor=none;top=0;left=0;bottom=0;right=0;fontStyle=1;overflow=hidden;whiteSpace=wrap;html=1;" vertex="1" parent="xXSBbQS-GHTuA5fwGTZt-32">
          <mxGeometry width="30" height="30" as="geometry">
            <mxRectangle width="30" height="30" as="alternateBounds" />
          </mxGeometry>
        </mxCell>
        <mxCell id="xXSBbQS-GHTuA5fwGTZt-34" value="ID" style="shape=partialRectangle;connectable=0;fillColor=none;top=0;left=0;bottom=0;right=0;align=left;spacingLeft=6;fontStyle=5;overflow=hidden;whiteSpace=wrap;html=1;" vertex="1" parent="xXSBbQS-GHTuA5fwGTZt-32">
          <mxGeometry x="30" width="150" height="30" as="geometry">
            <mxRectangle width="150" height="30" as="alternateBounds" />
          </mxGeometry>
        </mxCell>
        <mxCell id="xXSBbQS-GHTuA5fwGTZt-35" value="" style="shape=tableRow;horizontal=0;startSize=0;swimlaneHead=0;swimlaneBody=0;fillColor=none;collapsible=0;dropTarget=0;points=[[0,0.5],[1,0.5]];portConstraint=eastwest;top=0;left=0;right=0;bottom=0;" vertex="1" parent="xXSBbQS-GHTuA5fwGTZt-31">
          <mxGeometry y="60" width="180" height="30" as="geometry" />
        </mxCell>
        <mxCell id="xXSBbQS-GHTuA5fwGTZt-36" value="" style="shape=partialRectangle;connectable=0;fillColor=none;top=0;left=0;bottom=0;right=0;editable=1;overflow=hidden;whiteSpace=wrap;html=1;" vertex="1" parent="xXSBbQS-GHTuA5fwGTZt-35">
          <mxGeometry width="30" height="30" as="geometry">
            <mxRectangle width="30" height="30" as="alternateBounds" />
          </mxGeometry>
        </mxCell>
        <mxCell id="xXSBbQS-GHTuA5fwGTZt-37" value="nombre" style="shape=partialRectangle;connectable=0;fillColor=none;top=0;left=0;bottom=0;right=0;align=left;spacingLeft=6;overflow=hidden;whiteSpace=wrap;html=1;" vertex="1" parent="xXSBbQS-GHTuA5fwGTZt-35">
          <mxGeometry x="30" width="150" height="30" as="geometry">
            <mxRectangle width="150" height="30" as="alternateBounds" />
          </mxGeometry>
        </mxCell>
        <mxCell id="xXSBbQS-GHTuA5fwGTZt-38" value="" style="shape=tableRow;horizontal=0;startSize=0;swimlaneHead=0;swimlaneBody=0;fillColor=none;collapsible=0;dropTarget=0;points=[[0,0.5],[1,0.5]];portConstraint=eastwest;top=0;left=0;right=0;bottom=0;" vertex="1" parent="xXSBbQS-GHTuA5fwGTZt-31">
          <mxGeometry y="90" width="180" height="30" as="geometry" />
        </mxCell>
        <mxCell id="xXSBbQS-GHTuA5fwGTZt-39" value="" style="shape=partialRectangle;connectable=0;fillColor=none;top=0;left=0;bottom=0;right=0;editable=1;overflow=hidden;whiteSpace=wrap;html=1;" vertex="1" parent="xXSBbQS-GHTuA5fwGTZt-38">
          <mxGeometry width="30" height="30" as="geometry">
            <mxRectangle width="30" height="30" as="alternateBounds" />
          </mxGeometry>
        </mxCell>
        <mxCell id="xXSBbQS-GHTuA5fwGTZt-40" value="precio" style="shape=partialRectangle;connectable=0;fillColor=none;top=0;left=0;bottom=0;right=0;align=left;spacingLeft=6;overflow=hidden;whiteSpace=wrap;html=1;" vertex="1" parent="xXSBbQS-GHTuA5fwGTZt-38">
          <mxGeometry x="30" width="150" height="30" as="geometry">
            <mxRectangle width="150" height="30" as="alternateBounds" />
          </mxGeometry>
        </mxCell>
        <mxCell id="xXSBbQS-GHTuA5fwGTZt-44" value="Clientes" style="shape=table;startSize=30;container=1;collapsible=1;childLayout=tableLayout;fixedRows=1;rowLines=0;fontStyle=1;align=center;resizeLast=1;html=1;fillColor=#dae8fc;strokeColor=#6c8ebf;" vertex="1" parent="1">
          <mxGeometry x="935" y="510" width="180" height="120" as="geometry" />
        </mxCell>
        <mxCell id="xXSBbQS-GHTuA5fwGTZt-45" value="" style="shape=tableRow;horizontal=0;startSize=0;swimlaneHead=0;swimlaneBody=0;fillColor=none;collapsible=0;dropTarget=0;points=[[0,0.5],[1,0.5]];portConstraint=eastwest;top=0;left=0;right=0;bottom=1;" vertex="1" parent="xXSBbQS-GHTuA5fwGTZt-44">
          <mxGeometry y="30" width="180" height="30" as="geometry" />
        </mxCell>
        <mxCell id="xXSBbQS-GHTuA5fwGTZt-46" value="PK" style="shape=partialRectangle;connectable=0;fillColor=none;top=0;left=0;bottom=0;right=0;fontStyle=1;overflow=hidden;whiteSpace=wrap;html=1;" vertex="1" parent="xXSBbQS-GHTuA5fwGTZt-45">
          <mxGeometry width="30" height="30" as="geometry">
            <mxRectangle width="30" height="30" as="alternateBounds" />
          </mxGeometry>
        </mxCell>
        <mxCell id="xXSBbQS-GHTuA5fwGTZt-47" value="ID" style="shape=partialRectangle;connectable=0;fillColor=none;top=0;left=0;bottom=0;right=0;align=left;spacingLeft=6;fontStyle=5;overflow=hidden;whiteSpace=wrap;html=1;" vertex="1" parent="xXSBbQS-GHTuA5fwGTZt-45">
          <mxGeometry x="30" width="150" height="30" as="geometry">
            <mxRectangle width="150" height="30" as="alternateBounds" />
          </mxGeometry>
        </mxCell>
        <mxCell id="xXSBbQS-GHTuA5fwGTZt-48" value="" style="shape=tableRow;horizontal=0;startSize=0;swimlaneHead=0;swimlaneBody=0;fillColor=none;collapsible=0;dropTarget=0;points=[[0,0.5],[1,0.5]];portConstraint=eastwest;top=0;left=0;right=0;bottom=0;" vertex="1" parent="xXSBbQS-GHTuA5fwGTZt-44">
          <mxGeometry y="60" width="180" height="30" as="geometry" />
        </mxCell>
        <mxCell id="xXSBbQS-GHTuA5fwGTZt-49" value="" style="shape=partialRectangle;connectable=0;fillColor=none;top=0;left=0;bottom=0;right=0;editable=1;overflow=hidden;whiteSpace=wrap;html=1;" vertex="1" parent="xXSBbQS-GHTuA5fwGTZt-48">
          <mxGeometry width="30" height="30" as="geometry">
            <mxRectangle width="30" height="30" as="alternateBounds" />
          </mxGeometry>
        </mxCell>
        <mxCell id="xXSBbQS-GHTuA5fwGTZt-50" value="nombre_imagen" style="shape=partialRectangle;connectable=0;fillColor=none;top=0;left=0;bottom=0;right=0;align=left;spacingLeft=6;overflow=hidden;whiteSpace=wrap;html=1;" vertex="1" parent="xXSBbQS-GHTuA5fwGTZt-48">
          <mxGeometry x="30" width="150" height="30" as="geometry">
            <mxRectangle width="150" height="30" as="alternateBounds" />
          </mxGeometry>
        </mxCell>
        <mxCell id="xXSBbQS-GHTuA5fwGTZt-51" value="" style="shape=tableRow;horizontal=0;startSize=0;swimlaneHead=0;swimlaneBody=0;fillColor=none;collapsible=0;dropTarget=0;points=[[0,0.5],[1,0.5]];portConstraint=eastwest;top=0;left=0;right=0;bottom=0;" vertex="1" parent="xXSBbQS-GHTuA5fwGTZt-44">
          <mxGeometry y="90" width="180" height="30" as="geometry" />
        </mxCell>
        <mxCell id="xXSBbQS-GHTuA5fwGTZt-52" value="" style="shape=partialRectangle;connectable=0;fillColor=none;top=0;left=0;bottom=0;right=0;editable=1;overflow=hidden;whiteSpace=wrap;html=1;" vertex="1" parent="xXSBbQS-GHTuA5fwGTZt-51">
          <mxGeometry width="30" height="30" as="geometry">
            <mxRectangle width="30" height="30" as="alternateBounds" />
          </mxGeometry>
        </mxCell>
        <mxCell id="xXSBbQS-GHTuA5fwGTZt-53" value="nombre" style="shape=partialRectangle;connectable=0;fillColor=none;top=0;left=0;bottom=0;right=0;align=left;spacingLeft=6;overflow=hidden;whiteSpace=wrap;html=1;" vertex="1" parent="xXSBbQS-GHTuA5fwGTZt-51">
          <mxGeometry x="30" width="150" height="30" as="geometry">
            <mxRectangle width="150" height="30" as="alternateBounds" />
          </mxGeometry>
        </mxCell>
        <mxCell id="xXSBbQS-GHTuA5fwGTZt-57" value="Inventario" style="shape=table;startSize=30;container=1;collapsible=1;childLayout=tableLayout;fixedRows=1;rowLines=0;fontStyle=1;align=center;resizeLast=1;html=1;fillColor=#dae8fc;strokeColor=#6c8ebf;" vertex="1" parent="1">
          <mxGeometry x="55" y="510" width="180" height="120" as="geometry" />
        </mxCell>
        <mxCell id="xXSBbQS-GHTuA5fwGTZt-58" value="" style="shape=tableRow;horizontal=0;startSize=0;swimlaneHead=0;swimlaneBody=0;fillColor=none;collapsible=0;dropTarget=0;points=[[0,0.5],[1,0.5]];portConstraint=eastwest;top=0;left=0;right=0;bottom=1;" vertex="1" parent="xXSBbQS-GHTuA5fwGTZt-57">
          <mxGeometry y="30" width="180" height="30" as="geometry" />
        </mxCell>
        <mxCell id="xXSBbQS-GHTuA5fwGTZt-59" value="PK" style="shape=partialRectangle;connectable=0;fillColor=none;top=0;left=0;bottom=0;right=0;fontStyle=1;overflow=hidden;whiteSpace=wrap;html=1;" vertex="1" parent="xXSBbQS-GHTuA5fwGTZt-58">
          <mxGeometry width="30" height="30" as="geometry">
            <mxRectangle width="30" height="30" as="alternateBounds" />
          </mxGeometry>
        </mxCell>
        <mxCell id="xXSBbQS-GHTuA5fwGTZt-60" value="ID" style="shape=partialRectangle;connectable=0;fillColor=none;top=0;left=0;bottom=0;right=0;align=left;spacingLeft=6;fontStyle=5;overflow=hidden;whiteSpace=wrap;html=1;" vertex="1" parent="xXSBbQS-GHTuA5fwGTZt-58">
          <mxGeometry x="30" width="150" height="30" as="geometry">
            <mxRectangle width="150" height="30" as="alternateBounds" />
          </mxGeometry>
        </mxCell>
        <mxCell id="xXSBbQS-GHTuA5fwGTZt-61" value="" style="shape=tableRow;horizontal=0;startSize=0;swimlaneHead=0;swimlaneBody=0;fillColor=none;collapsible=0;dropTarget=0;points=[[0,0.5],[1,0.5]];portConstraint=eastwest;top=0;left=0;right=0;bottom=0;" vertex="1" parent="xXSBbQS-GHTuA5fwGTZt-57">
          <mxGeometry y="60" width="180" height="30" as="geometry" />
        </mxCell>
        <mxCell id="xXSBbQS-GHTuA5fwGTZt-62" value="" style="shape=partialRectangle;connectable=0;fillColor=none;top=0;left=0;bottom=0;right=0;editable=1;overflow=hidden;whiteSpace=wrap;html=1;" vertex="1" parent="xXSBbQS-GHTuA5fwGTZt-61">
          <mxGeometry width="30" height="30" as="geometry">
            <mxRectangle width="30" height="30" as="alternateBounds" />
          </mxGeometry>
        </mxCell>
        <mxCell id="xXSBbQS-GHTuA5fwGTZt-63" value="cantidad_existencia" style="shape=partialRectangle;connectable=0;fillColor=none;top=0;left=0;bottom=0;right=0;align=left;spacingLeft=6;overflow=hidden;whiteSpace=wrap;html=1;" vertex="1" parent="xXSBbQS-GHTuA5fwGTZt-61">
          <mxGeometry x="30" width="150" height="30" as="geometry">
            <mxRectangle width="150" height="30" as="alternateBounds" />
          </mxGeometry>
        </mxCell>
        <mxCell id="xXSBbQS-GHTuA5fwGTZt-64" value="" style="shape=tableRow;horizontal=0;startSize=0;swimlaneHead=0;swimlaneBody=0;fillColor=none;collapsible=0;dropTarget=0;points=[[0,0.5],[1,0.5]];portConstraint=eastwest;top=0;left=0;right=0;bottom=0;" vertex="1" parent="xXSBbQS-GHTuA5fwGTZt-57">
          <mxGeometry y="90" width="180" height="30" as="geometry" />
        </mxCell>
        <mxCell id="xXSBbQS-GHTuA5fwGTZt-65" value="FK" style="shape=partialRectangle;connectable=0;fillColor=none;top=0;left=0;bottom=0;right=0;editable=1;overflow=hidden;whiteSpace=wrap;html=1;" vertex="1" parent="xXSBbQS-GHTuA5fwGTZt-64">
          <mxGeometry width="30" height="30" as="geometry">
            <mxRectangle width="30" height="30" as="alternateBounds" />
          </mxGeometry>
        </mxCell>
        <mxCell id="xXSBbQS-GHTuA5fwGTZt-66" value="IDproducto" style="shape=partialRectangle;connectable=0;fillColor=none;top=0;left=0;bottom=0;right=0;align=left;spacingLeft=6;overflow=hidden;whiteSpace=wrap;html=1;" vertex="1" parent="xXSBbQS-GHTuA5fwGTZt-64">
          <mxGeometry x="30" width="150" height="30" as="geometry">
            <mxRectangle width="150" height="30" as="alternateBounds" />
          </mxGeometry>
        </mxCell>
        <mxCell id="xXSBbQS-GHTuA5fwGTZt-70" value="N:N" style="text;html=1;align=center;verticalAlign=middle;resizable=0;points=[];autosize=1;strokeColor=none;fillColor=none;" vertex="1" parent="1">
          <mxGeometry x="705" y="220" width="40" height="30" as="geometry" />
        </mxCell>
        <mxCell id="xXSBbQS-GHTuA5fwGTZt-72" value="Compras" style="shape=table;startSize=30;container=1;collapsible=1;childLayout=tableLayout;fixedRows=1;rowLines=0;fontStyle=1;align=center;resizeLast=1;html=1;fillColor=#f8cecc;strokeColor=#b85450;" vertex="1" parent="1">
          <mxGeometry x="715" y="510" width="180" height="180" as="geometry" />
        </mxCell>
        <mxCell id="xXSBbQS-GHTuA5fwGTZt-73" value="" style="shape=tableRow;horizontal=0;startSize=0;swimlaneHead=0;swimlaneBody=0;fillColor=none;collapsible=0;dropTarget=0;points=[[0,0.5],[1,0.5]];portConstraint=eastwest;top=0;left=0;right=0;bottom=1;" vertex="1" parent="xXSBbQS-GHTuA5fwGTZt-72">
          <mxGeometry y="30" width="180" height="30" as="geometry" />
        </mxCell>
        <mxCell id="xXSBbQS-GHTuA5fwGTZt-74" value="PK" style="shape=partialRectangle;connectable=0;fillColor=none;top=0;left=0;bottom=0;right=0;fontStyle=1;overflow=hidden;whiteSpace=wrap;html=1;" vertex="1" parent="xXSBbQS-GHTuA5fwGTZt-73">
          <mxGeometry width="30" height="30" as="geometry">
            <mxRectangle width="30" height="30" as="alternateBounds" />
          </mxGeometry>
        </mxCell>
        <mxCell id="xXSBbQS-GHTuA5fwGTZt-75" value="ID" style="shape=partialRectangle;connectable=0;fillColor=none;top=0;left=0;bottom=0;right=0;align=left;spacingLeft=6;fontStyle=5;overflow=hidden;whiteSpace=wrap;html=1;" vertex="1" parent="xXSBbQS-GHTuA5fwGTZt-73">
          <mxGeometry x="30" width="150" height="30" as="geometry">
            <mxRectangle width="150" height="30" as="alternateBounds" />
          </mxGeometry>
        </mxCell>
        <mxCell id="xXSBbQS-GHTuA5fwGTZt-76" value="" style="shape=tableRow;horizontal=0;startSize=0;swimlaneHead=0;swimlaneBody=0;fillColor=none;collapsible=0;dropTarget=0;points=[[0,0.5],[1,0.5]];portConstraint=eastwest;top=0;left=0;right=0;bottom=0;" vertex="1" parent="xXSBbQS-GHTuA5fwGTZt-72">
          <mxGeometry y="60" width="180" height="30" as="geometry" />
        </mxCell>
        <mxCell id="xXSBbQS-GHTuA5fwGTZt-77" value="" style="shape=partialRectangle;connectable=0;fillColor=none;top=0;left=0;bottom=0;right=0;editable=1;overflow=hidden;whiteSpace=wrap;html=1;" vertex="1" parent="xXSBbQS-GHTuA5fwGTZt-76">
          <mxGeometry width="30" height="30" as="geometry">
            <mxRectangle width="30" height="30" as="alternateBounds" />
          </mxGeometry>
        </mxCell>
        <mxCell id="xXSBbQS-GHTuA5fwGTZt-78" value="fecha" style="shape=partialRectangle;connectable=0;fillColor=none;top=0;left=0;bottom=0;right=0;align=left;spacingLeft=6;overflow=hidden;whiteSpace=wrap;html=1;" vertex="1" parent="xXSBbQS-GHTuA5fwGTZt-76">
          <mxGeometry x="30" width="150" height="30" as="geometry">
            <mxRectangle width="150" height="30" as="alternateBounds" />
          </mxGeometry>
        </mxCell>
        <mxCell id="xXSBbQS-GHTuA5fwGTZt-79" value="" style="shape=tableRow;horizontal=0;startSize=0;swimlaneHead=0;swimlaneBody=0;fillColor=none;collapsible=0;dropTarget=0;points=[[0,0.5],[1,0.5]];portConstraint=eastwest;top=0;left=0;right=0;bottom=0;" vertex="1" parent="xXSBbQS-GHTuA5fwGTZt-72">
          <mxGeometry y="90" width="180" height="30" as="geometry" />
        </mxCell>
        <mxCell id="xXSBbQS-GHTuA5fwGTZt-80" value="" style="shape=partialRectangle;connectable=0;fillColor=none;top=0;left=0;bottom=0;right=0;editable=1;overflow=hidden;whiteSpace=wrap;html=1;" vertex="1" parent="xXSBbQS-GHTuA5fwGTZt-79">
          <mxGeometry width="30" height="30" as="geometry">
            <mxRectangle width="30" height="30" as="alternateBounds" />
          </mxGeometry>
        </mxCell>
        <mxCell id="xXSBbQS-GHTuA5fwGTZt-81" value="cantidad_vendida" style="shape=partialRectangle;connectable=0;fillColor=none;top=0;left=0;bottom=0;right=0;align=left;spacingLeft=6;overflow=hidden;whiteSpace=wrap;html=1;" vertex="1" parent="xXSBbQS-GHTuA5fwGTZt-79">
          <mxGeometry x="30" width="150" height="30" as="geometry">
            <mxRectangle width="150" height="30" as="alternateBounds" />
          </mxGeometry>
        </mxCell>
        <mxCell id="xXSBbQS-GHTuA5fwGTZt-82" value="" style="shape=tableRow;horizontal=0;startSize=0;swimlaneHead=0;swimlaneBody=0;fillColor=none;collapsible=0;dropTarget=0;points=[[0,0.5],[1,0.5]];portConstraint=eastwest;top=0;left=0;right=0;bottom=0;" vertex="1" parent="xXSBbQS-GHTuA5fwGTZt-72">
          <mxGeometry y="120" width="180" height="30" as="geometry" />
        </mxCell>
        <mxCell id="xXSBbQS-GHTuA5fwGTZt-83" value="FK" style="shape=partialRectangle;connectable=0;fillColor=none;top=0;left=0;bottom=0;right=0;editable=1;overflow=hidden;whiteSpace=wrap;html=1;" vertex="1" parent="xXSBbQS-GHTuA5fwGTZt-82">
          <mxGeometry width="30" height="30" as="geometry">
            <mxRectangle width="30" height="30" as="alternateBounds" />
          </mxGeometry>
        </mxCell>
        <mxCell id="xXSBbQS-GHTuA5fwGTZt-84" value="IDproducto" style="shape=partialRectangle;connectable=0;fillColor=none;top=0;left=0;bottom=0;right=0;align=left;spacingLeft=6;overflow=hidden;whiteSpace=wrap;html=1;" vertex="1" parent="xXSBbQS-GHTuA5fwGTZt-82">
          <mxGeometry x="30" width="150" height="30" as="geometry">
            <mxRectangle width="150" height="30" as="alternateBounds" />
          </mxGeometry>
        </mxCell>
        <mxCell id="xXSBbQS-GHTuA5fwGTZt-111" value="" style="shape=tableRow;horizontal=0;startSize=0;swimlaneHead=0;swimlaneBody=0;fillColor=none;collapsible=0;dropTarget=0;points=[[0,0.5],[1,0.5]];portConstraint=eastwest;top=0;left=0;right=0;bottom=0;" vertex="1" parent="xXSBbQS-GHTuA5fwGTZt-72">
          <mxGeometry y="150" width="180" height="30" as="geometry" />
        </mxCell>
        <mxCell id="xXSBbQS-GHTuA5fwGTZt-112" value="FK" style="shape=partialRectangle;connectable=0;fillColor=none;top=0;left=0;bottom=0;right=0;editable=1;overflow=hidden;whiteSpace=wrap;html=1;" vertex="1" parent="xXSBbQS-GHTuA5fwGTZt-111">
          <mxGeometry width="30" height="30" as="geometry">
            <mxRectangle width="30" height="30" as="alternateBounds" />
          </mxGeometry>
        </mxCell>
        <mxCell id="xXSBbQS-GHTuA5fwGTZt-113" value="IDcliente" style="shape=partialRectangle;connectable=0;fillColor=none;top=0;left=0;bottom=0;right=0;align=left;spacingLeft=6;overflow=hidden;whiteSpace=wrap;html=1;" vertex="1" parent="xXSBbQS-GHTuA5fwGTZt-111">
          <mxGeometry x="30" width="150" height="30" as="geometry">
            <mxRectangle width="150" height="30" as="alternateBounds" />
          </mxGeometry>
        </mxCell>
        <mxCell id="xXSBbQS-GHTuA5fwGTZt-85" value="nombre" style="ellipse;whiteSpace=wrap;html=1;fillColor=#dae8fc;strokeColor=#6c8ebf;" vertex="1" parent="1">
          <mxGeometry x="875" y="360" width="120" height="80" as="geometry" />
        </mxCell>
        <mxCell id="xXSBbQS-GHTuA5fwGTZt-86" value="fecha" style="ellipse;whiteSpace=wrap;html=1;fillColor=#dae8fc;strokeColor=#6c8ebf;" vertex="1" parent="1">
          <mxGeometry x="618.5" y="360" width="100" height="60" as="geometry" />
        </mxCell>
        <mxCell id="xXSBbQS-GHTuA5fwGTZt-90" value="Registro_inventario" style="shape=table;startSize=30;container=1;collapsible=1;childLayout=tableLayout;fixedRows=1;rowLines=0;fontStyle=1;align=center;resizeLast=1;html=1;fillColor=#f8cecc;strokeColor=#b85450;" vertex="1" parent="1">
          <mxGeometry x="275" y="510" width="180" height="150" as="geometry" />
        </mxCell>
        <mxCell id="xXSBbQS-GHTuA5fwGTZt-91" value="" style="shape=tableRow;horizontal=0;startSize=0;swimlaneHead=0;swimlaneBody=0;fillColor=none;collapsible=0;dropTarget=0;points=[[0,0.5],[1,0.5]];portConstraint=eastwest;top=0;left=0;right=0;bottom=1;" vertex="1" parent="xXSBbQS-GHTuA5fwGTZt-90">
          <mxGeometry y="30" width="180" height="30" as="geometry" />
        </mxCell>
        <mxCell id="xXSBbQS-GHTuA5fwGTZt-92" value="PK" style="shape=partialRectangle;connectable=0;fillColor=none;top=0;left=0;bottom=0;right=0;fontStyle=1;overflow=hidden;whiteSpace=wrap;html=1;" vertex="1" parent="xXSBbQS-GHTuA5fwGTZt-91">
          <mxGeometry width="30" height="30" as="geometry">
            <mxRectangle width="30" height="30" as="alternateBounds" />
          </mxGeometry>
        </mxCell>
        <mxCell id="xXSBbQS-GHTuA5fwGTZt-93" value="ID" style="shape=partialRectangle;connectable=0;fillColor=none;top=0;left=0;bottom=0;right=0;align=left;spacingLeft=6;fontStyle=5;overflow=hidden;whiteSpace=wrap;html=1;" vertex="1" parent="xXSBbQS-GHTuA5fwGTZt-91">
          <mxGeometry x="30" width="150" height="30" as="geometry">
            <mxRectangle width="150" height="30" as="alternateBounds" />
          </mxGeometry>
        </mxCell>
        <mxCell id="xXSBbQS-GHTuA5fwGTZt-94" value="" style="shape=tableRow;horizontal=0;startSize=0;swimlaneHead=0;swimlaneBody=0;fillColor=none;collapsible=0;dropTarget=0;points=[[0,0.5],[1,0.5]];portConstraint=eastwest;top=0;left=0;right=0;bottom=0;" vertex="1" parent="xXSBbQS-GHTuA5fwGTZt-90">
          <mxGeometry y="60" width="180" height="30" as="geometry" />
        </mxCell>
        <mxCell id="xXSBbQS-GHTuA5fwGTZt-95" value="FK" style="shape=partialRectangle;connectable=0;fillColor=none;top=0;left=0;bottom=0;right=0;editable=1;overflow=hidden;whiteSpace=wrap;html=1;" vertex="1" parent="xXSBbQS-GHTuA5fwGTZt-94">
          <mxGeometry width="30" height="30" as="geometry">
            <mxRectangle width="30" height="30" as="alternateBounds" />
          </mxGeometry>
        </mxCell>
        <mxCell id="xXSBbQS-GHTuA5fwGTZt-96" value="IDproducto" style="shape=partialRectangle;connectable=0;fillColor=none;top=0;left=0;bottom=0;right=0;align=left;spacingLeft=6;overflow=hidden;whiteSpace=wrap;html=1;" vertex="1" parent="xXSBbQS-GHTuA5fwGTZt-94">
          <mxGeometry x="30" width="150" height="30" as="geometry">
            <mxRectangle width="150" height="30" as="alternateBounds" />
          </mxGeometry>
        </mxCell>
        <mxCell id="xXSBbQS-GHTuA5fwGTZt-97" value="" style="shape=tableRow;horizontal=0;startSize=0;swimlaneHead=0;swimlaneBody=0;fillColor=none;collapsible=0;dropTarget=0;points=[[0,0.5],[1,0.5]];portConstraint=eastwest;top=0;left=0;right=0;bottom=0;" vertex="1" parent="xXSBbQS-GHTuA5fwGTZt-90">
          <mxGeometry y="90" width="180" height="30" as="geometry" />
        </mxCell>
        <mxCell id="xXSBbQS-GHTuA5fwGTZt-98" value="FK" style="shape=partialRectangle;connectable=0;fillColor=none;top=0;left=0;bottom=0;right=0;editable=1;overflow=hidden;whiteSpace=wrap;html=1;" vertex="1" parent="xXSBbQS-GHTuA5fwGTZt-97">
          <mxGeometry width="30" height="30" as="geometry">
            <mxRectangle width="30" height="30" as="alternateBounds" />
          </mxGeometry>
        </mxCell>
        <mxCell id="xXSBbQS-GHTuA5fwGTZt-99" value="IDinventario" style="shape=partialRectangle;connectable=0;fillColor=none;top=0;left=0;bottom=0;right=0;align=left;spacingLeft=6;overflow=hidden;whiteSpace=wrap;html=1;" vertex="1" parent="xXSBbQS-GHTuA5fwGTZt-97">
          <mxGeometry x="30" width="150" height="30" as="geometry">
            <mxRectangle width="150" height="30" as="alternateBounds" />
          </mxGeometry>
        </mxCell>
        <mxCell id="xXSBbQS-GHTuA5fwGTZt-100" value="" style="shape=tableRow;horizontal=0;startSize=0;swimlaneHead=0;swimlaneBody=0;fillColor=none;collapsible=0;dropTarget=0;points=[[0,0.5],[1,0.5]];portConstraint=eastwest;top=0;left=0;right=0;bottom=0;" vertex="1" parent="xXSBbQS-GHTuA5fwGTZt-90">
          <mxGeometry y="120" width="180" height="30" as="geometry" />
        </mxCell>
        <mxCell id="xXSBbQS-GHTuA5fwGTZt-101" value="" style="shape=partialRectangle;connectable=0;fillColor=none;top=0;left=0;bottom=0;right=0;editable=1;overflow=hidden;whiteSpace=wrap;html=1;" vertex="1" parent="xXSBbQS-GHTuA5fwGTZt-100">
          <mxGeometry width="30" height="30" as="geometry">
            <mxRectangle width="30" height="30" as="alternateBounds" />
          </mxGeometry>
        </mxCell>
        <mxCell id="xXSBbQS-GHTuA5fwGTZt-102" value="cantidad_adquirida" style="shape=partialRectangle;connectable=0;fillColor=none;top=0;left=0;bottom=0;right=0;align=left;spacingLeft=6;overflow=hidden;whiteSpace=wrap;html=1;" vertex="1" parent="xXSBbQS-GHTuA5fwGTZt-100">
          <mxGeometry x="30" width="150" height="30" as="geometry">
            <mxRectangle width="150" height="30" as="alternateBounds" />
          </mxGeometry>
        </mxCell>
        <mxCell id="xXSBbQS-GHTuA5fwGTZt-106" value="cantidad" style="ellipse;whiteSpace=wrap;html=1;fillColor=#dae8fc;strokeColor=#6c8ebf;" vertex="1" parent="1">
          <mxGeometry x="735" y="360" width="100" height="60" as="geometry" />
        </mxCell>
        <mxCell id="xXSBbQS-GHTuA5fwGTZt-116" style="edgeStyle=orthogonalEdgeStyle;rounded=0;orthogonalLoop=1;jettySize=auto;html=1;exitX=0;exitY=1;exitDx=0;exitDy=0;entryX=0.5;entryY=0;entryDx=0;entryDy=0;endArrow=none;endFill=0;" edge="1" parent="1" source="xXSBbQS-GHTuA5fwGTZt-118" target="xXSBbQS-GHTuA5fwGTZt-119">
          <mxGeometry relative="1" as="geometry">
            <Array as="points">
              <mxPoint x="265.5" y="310" />
              <mxPoint x="265.5" y="350" />
            </Array>
          </mxGeometry>
        </mxCell>
        <mxCell id="xXSBbQS-GHTuA5fwGTZt-117" style="edgeStyle=orthogonalEdgeStyle;rounded=0;orthogonalLoop=1;jettySize=auto;html=1;exitX=1;exitY=1;exitDx=0;exitDy=0;entryX=0.5;entryY=0;entryDx=0;entryDy=0;endArrow=none;endFill=0;" edge="1" parent="1" source="xXSBbQS-GHTuA5fwGTZt-118" target="xXSBbQS-GHTuA5fwGTZt-120">
          <mxGeometry relative="1" as="geometry">
            <Array as="points">
              <mxPoint x="381.5" y="310" />
            </Array>
          </mxGeometry>
        </mxCell>
        <mxCell id="xXSBbQS-GHTuA5fwGTZt-118" value="Registro" style="rhombus;whiteSpace=wrap;html=1;fillColor=#fff2cc;strokeColor=#d6b656;" vertex="1" parent="1">
          <mxGeometry x="281.5" y="250" width="80" height="80" as="geometry" />
        </mxCell>
        <mxCell id="xXSBbQS-GHTuA5fwGTZt-119" value="fecha" style="ellipse;whiteSpace=wrap;html=1;fillColor=#dae8fc;strokeColor=#6c8ebf;" vertex="1" parent="1">
          <mxGeometry x="215" y="360" width="100" height="60" as="geometry" />
        </mxCell>
        <mxCell id="xXSBbQS-GHTuA5fwGTZt-120" value="cantidad" style="ellipse;whiteSpace=wrap;html=1;fillColor=#dae8fc;strokeColor=#6c8ebf;" vertex="1" parent="1">
          <mxGeometry x="331.5" y="360" width="100" height="60" as="geometry" />
        </mxCell>
        <mxCell id="xXSBbQS-GHTuA5fwGTZt-121" style="edgeStyle=orthogonalEdgeStyle;rounded=0;orthogonalLoop=1;jettySize=auto;html=1;entryX=0;entryY=0.5;entryDx=0;entryDy=0;" edge="1" parent="1" source="xXSBbQS-GHTuA5fwGTZt-111" target="xXSBbQS-GHTuA5fwGTZt-45">
          <mxGeometry relative="1" as="geometry" />
        </mxCell>
        <mxCell id="xXSBbQS-GHTuA5fwGTZt-122" style="edgeStyle=orthogonalEdgeStyle;rounded=0;orthogonalLoop=1;jettySize=auto;html=1;entryX=1;entryY=0.5;entryDx=0;entryDy=0;" edge="1" parent="1" source="xXSBbQS-GHTuA5fwGTZt-82" target="xXSBbQS-GHTuA5fwGTZt-32">
          <mxGeometry relative="1" as="geometry" />
        </mxCell>
        <mxCell id="xXSBbQS-GHTuA5fwGTZt-123" style="edgeStyle=orthogonalEdgeStyle;rounded=0;orthogonalLoop=1;jettySize=auto;html=1;entryX=1;entryY=0.5;entryDx=0;entryDy=0;" edge="1" parent="1" source="xXSBbQS-GHTuA5fwGTZt-97" target="xXSBbQS-GHTuA5fwGTZt-58">
          <mxGeometry relative="1" as="geometry" />
        </mxCell>
        <mxCell id="xXSBbQS-GHTuA5fwGTZt-124" style="edgeStyle=orthogonalEdgeStyle;rounded=0;orthogonalLoop=1;jettySize=auto;html=1;entryX=0;entryY=0.5;entryDx=0;entryDy=0;" edge="1" parent="1" source="xXSBbQS-GHTuA5fwGTZt-94" target="xXSBbQS-GHTuA5fwGTZt-32">
          <mxGeometry relative="1" as="geometry" />
        </mxCell>
        <mxCell id="xXSBbQS-GHTuA5fwGTZt-125" value="1:N" style="text;html=1;align=center;verticalAlign=middle;resizable=0;points=[];autosize=1;strokeColor=none;fillColor=none;" vertex="1" parent="1">
          <mxGeometry x="299" y="224" width="37" height="26" as="geometry" />
        </mxCell>
      </root>
    </mxGraphModel>
  </diagram>
</mxfile>
